# AST/ASF file generated using VICON BodyLanguage
# -----------------------------------------------
:version 1.10
:name VICON
:units
  mass 1.0
  length 0.45
  angle deg
:documentation
   .ast/.asf automatically generated from VICON data using
   VICON BodyBuilder and BodyLanguage model FoxedUp or BRILLIANT.MOD
:root
   order TX TY TZ RX RY RZ
   axis XYZ
   position 0 0 0  
   orientation 0 0 0 
:bonedata
  begin
     id 1 
     name lhipjoint
     direction 0.561001 -0.76473 0.316963 
     length 2.4722 
     axis 0 0 0  XYZ
  end
  begin
     id 2 
     name lfemur
     direction 0.34202 -0.939693 0  
     length 7.59403  
     axis 0 0 20  XYZ
    dof rx ry rz
    limits (-160.0 20.0)
           (-70.0 70.0)
           (-60.0 70.0)
  end
  begin
     id 3 
     name ltibia
     direction 0.34202 -0.939693 0   
     length 7.89655   
     axis 0 0 20   XYZ
    dof rx
    limits (-10.0 170.0)
  end
  begin
     id 4 
     name lfoot
     direction 0.061296 -0.168409 0.98381   
     length 2.73287   
     axis -90 7.62852e-016 20   XYZ
    dof rx rz
    limits (-45.0 90.0)
           (-70.0 20.0)
  end
  begin
     id 5 
     name ltoes
     direction 1.53547e-011 -4.21984e-011 1   
     length 1.37057   
     axis -90 7.62852e-016 20   XYZ
    dof rx
    limits (-90.0 20.0)
  end
  begin
     id 6 
     name rhipjoint
     direction -0.559611 -0.765599 0.317323   
     length 2.46939  
     axis 0 0 0  XYZ 
  end
  begin
     id 7 
     name rfemur
     direction -0.34202 -0.939693 0   
     length 7.53712   
     axis 0 0 -20   XYZ
    dof rx ry rz
    limits (-160.0 20.0)
           (-70.0 70.0)
           (-70.0 60.0)
  end
  begin
     id 8 
     name rtibia
     direction -0.34202 -0.939693 0   
     length 8.12549   
     axis 0 0 -20   XYZ
    dof rx
    limits (-10.0 170.0)
 end
 begin
     id 9 
     name rfoot
     direction -0.066984 -0.184037 0.980634   
     length 2.67541  
     axis -90 -7.62852e-016 -20   XYZ
    dof rx rz
    limits (-45.0 90.0)
           (-20.0 70.0)
  end
  begin
     id 10 
     name rtoes
     direction -1.53549e-011 -4.21786e-011 1   
     length 1.34085   
     axis -90 -7.62852e-016 -20   XYZ
    dof rx
    limits (-90.0 20.0)
  end
  begin
     id 11 
     name lowerback
     direction -0.0522728 0.992594 -0.109658   
     length 2.05633   
     axis 0 0 0   XYZ
    dof rx ry rz
    limits (-20.0 45.0)
           (-30.0 30.0)
           (-30.0 30.0)
  end
  begin
     id 12 
     name upperback
     direction 0.00589338 0.999977 0.00335704   
     length 2.05845   
     axis 0 0 0   XYZ
    dof rx ry rz
    limits (-20.0 45.0)
           (-30.0 30.0)
           (-30.0 30.0)
  end
  begin
     id 13 
     name thorax
     direction 0.0292928 0.998059 0.0549487   
     length 2.09281   
     axis 0 0 0   XYZ
    dof rx ry rz
    limits (-20.0 45.0)
           (-30.0 30.0)
           (-30.0 30.0)
  end
  begin
     id 14 
     name lowerneck
     direction 0.0356368 0.980775 0.191858   
     length 1.84767   
     axis 0 0 0   XYZ
    dof rx ry rz
    limits (-20.0 45.0)
           (-30.0 30.0)
           (-30.0 30.0)
  end
  begin
     id 15 
     name upperneck
     direction -0.0227605 0.98931 -0.14404   
     length 1.89582   
     axis 0 0 0   XYZ
    dof rx ry rz
    limits (-20.0 45.0)
           (-30.0 30.0)
           (-30.0 30.0)
  end
  begin
     id 16
     name head
     direction -0.00932985 0.997511 -0.0698904  
     length 1.90213  
     axis 0 0 0   XYZ
    dof rx ry rz
    limits (-20.0 45.0)
           (-30.0 30.0)
           (-30.0 30.0)
  end
  begin
     id 17 
     name lclavicle
     direction 0.873442 0.479511 0.0846686  
     length 3.41193  
     axis 0 0 0   XYZ
    dof ry rz
    limits (-20.0 10.0)
           (0.0 20.0)
  end
  begin
     id 18 
     name lhumerus
     direction 1 -4.4897e-011 -5.62117e-018   
     length 5.59864   
     axis 180 -30 -90   XYZ
    dof rx ry rz
    limits (-60.0 90.0)
           (-90.0 90.0)
           (-90.0 90.0)
  end
  begin
     id 19
     name lradius
     direction 1 -4.48966e-011 -6.26295e-027   
     length 3.59542   
     axis 180 -30 -90   XYZ
    dof rx
    limits (-10.0 170.0)
  end
  begin
     id 20
     name lwrist
     direction 1 -4.48947e-011 -1.74096e-026   
     length 1.79771   
     axis 1.04567e-014 90 90   XYZ
    dof ry
    limits (-180.0 0.0)
 end
  begin
     id 21 
     name lhand
     direction 1 -4.49085e-011 -3.48469e-026   
     length 0.572014   
     axis 2.22196e-014 90 90   XYZ
    dof rx rz
    limits (-90.0 90.0)
           (-45.0 45.0)
  end
  begin
     id 22 
     name lfingers
     direction 1 -4.48884e-011 -6.96135e-026   
     length 0.461173   
     axis 4.44383e-014 90 90   XYZ
    dof rx
    limits (0.0 90.0)
  end
  begin
     id 23
     name lthumb
     direction 0.707107 -6.34976e-011 0.707107   
     length 0.662154   
     axis -90 45 -5.4397e-014   XYZ
    dof rx rz
    limits (-45.0 45.0)
           (-45.0 45.0)
  end
  begin
     id 24 
     name rclavicle
     direction -0.890242 0.443271 0.104786   
     length 3.46753  
     axis 0 0 0   XYZ 
    dof ry rz
    limits (-10.0 20.0)
           (-20.0 0.0)
  end
  begin
     id 25 
     name rhumerus
     direction -1 -4.48963e-011 -5.41723e-018  
     length 5.8094   
     axis 180 30 90   XYZ
    dof rx ry rz
    limits (-90.0 60.0)
           (-90.0 90.0)
           (-90.0 90.0)
  end
  begin
     id 26 
     name rradius
     direction -1 -4.48958e-011 -6.51059e-027   
     length 3.66953   
     axis 180 30 90   XYZ
    dof rx
    limits (-10.0 170.0)
  end
  begin
     id 27 
     name rwrist
     direction -1 -4.48975e-011 -1.74124e-026   
     length 1.83476   
     axis 1.04567e-014 -90 -90   XYZ
    dof ry
    limits (-180.0 0.0)
  end
  begin
     id 28
     name rhand
     direction -1 -4.49013e-011 -3.48326e-026   
     length 0.57843   
     axis 2.22196e-014 -90 -90   XYZ
    dof rx rz
    limits (-90.0 90.0)
           (-45.0 45.0)
  end
  begin
     id 29
     name rfingers
     direction -1 -4.49023e-011 -6.9669e-026   
     length 0.466345   
     axis 4.44383e-014 -90 -90   XYZ
    dof rx
    limits (0.0 90.0)
  end
  begin
     id 30
     name rthumb
     direction -0.707107 -6.34926e-011 0.707107   
     length 0.669581   
     axis -90 -45 5.4397e-014   XYZ
    dof rx rz
    limits (-45.0 45.0)
           (-45.0 45.0)
  end
:hierarchy
  begin
    root lhipjoint rhipjoint lowerback
    lhipjoint lfemur
    lfemur ltibia
    ltibia lfoot
    lfoot ltoes
    rhipjoint rfemur
    rfemur rtibia
    rtibia rfoot
    rfoot rtoes
    lowerback upperback
    upperback thorax
    thorax lowerneck lclavicle rclavicle
    lowerneck upperneck
    upperneck head
    lclavicle lhumerus
    lhumerus lradius
    lradius lwrist
    lwrist lhand lthumb
    lhand lfingers
    rclavicle rhumerus
    rhumerus rradius
    rradius rwrist
    rwrist rhand rthumb
    rhand rfingers
  end

#!OML:ASF H:\SkateBoarding\Project 1\Capture day 1\Session 1\Skater.ASF
:FULLY-SPECIFIED
:DEGREES
190
root 5.96602 18.5188 9.31077 -4.34624 16.1588 -1.11727
lowerback 11.4875 -1.46419 -4.31069
upperback -0.072978 -2.61489 -1.45495
thorax -6.40589 -1.16353 1.33229
lowerneck -13.4294 1.21171 3.61331
upperneck 28.5145 2.0715 -3.97289
head 11.586 0.853274 -1.80233
rclavicle -2.80845e-014 -9.54166e-015
rhumerus -38.0357 -4.4089 -87.7213
rradius 34.9652
rwrist -11.3278
rhand -38.7407 -3.49034
rfingers 7.12502
rthumb -11.7536 -33.1406
lclavicle -2.80845e-014 -9.54166e-015
lhumerus -30.7913 2.20722 87.0183
lradius 26.275
lwrist 13.4512
lhand -16.4832 16.5291
lfingers 7.12502
lthumb 9.73398 46.2841
rfemur -36.7272 13.9982 10.9173
rtibia 48.0353
rfoot -0.964903 5.08696
rtoes -1.51691
lfemur 1.57101 -17.1673 -17.8197
ltibia 29.8364
lfoot -12.2716 -9.65163
ltoes -3.65285
191
root 5.96012 18.5369 9.40171 -4.08155 16.1565 -1.04417
lowerback 11.4313 -1.48517 -4.38594
upperback -0.0859546 -2.65552 -1.54141
thorax -6.38695 -1.18262 1.28839
lowerneck -13.3364 1.32158 3.74604
upperneck 28.6362 2.19589 -3.94774
head 11.6218 0.928005 -1.80063
rclavicle 3.84648e-014 0
rhumerus -37.7788 -3.8908 -88.0022
rradius 35.2329
rwrist -11.4449
rhand -38.7061 -3.38922
rfingers 7.12502
rthumb -11.7203 -33.0414
lclavicle 3.84648e-014 0
lhumerus -30.638 2.12154 86.8393
lradius 26.0242
lwrist 13.1789
lhand -16.3355 16.7725
lfingers 7.12502
lthumb 9.87646 46.5208
rfemur -36.8482 14.0227 10.9368
rtibia 48.1701
rfoot -1.16696 5.1699
rtoes -1.79967
lfemur 1.86724 -17.2881 -17.803
ltibia 29.2678
lfoot -11.9481 -9.52691
ltoes -2.95428
192
root 5.95396 18.5539 9.48985 -3.81968 16.1581 -0.96214
lowerback 11.3752 -1.50416 -4.46721
upperback -0.0950157 -2.69403 -1.62887
thorax -6.36384 -1.20064 1.24637
lowerneck -13.2338 1.43784 3.8815
upperneck 28.8057 2.32988 -3.91722
head 11.675 1.00833 -1.79674
rclavicle 7.20594e-015 -3.26007e-014
rhumerus -37.5152 -3.39783 -88.2533
rradius 35.4915
rwrist -11.5349
rhand -38.6799 -3.31068
rfingers 7.12502
rthumb -11.695 -32.9643
lclavicle 7.20594e-015 -3.26007e-014
lhumerus -30.4548 2.01853 86.6713
lradius 25.7993
lwrist 12.9276
lhand -16.2172 17.0261
lfingers 7.12502
lthumb 9.99065 46.769
rfemur -36.9635 14.0671 10.9416
rtibia 48.3118
rfoot -1.39501 5.25939
rtoes -2.07947
lfemur 2.1518 -17.3887 -17.7938
ltibia 28.7108
lfoot -11.6252 -9.40224
ltoes -2.23424
193
root 5.94759 18.5698 9.57502 -3.55791 16.1634 -0.876486
lowerback 11.32 -1.52238 -4.54575
upperback -0.102407 -2.73099 -1.71631
thorax -6.33964 -1.21803 1.20254
lowerneck -13.1229 1.56118 4.01241
upperneck 29.0211 2.47427 -3.87444
head 11.7453 1.09467 -1.78666
rclavicle 6.02566e-015 -2.22639e-014
rhumerus -37.2464 -2.93054 -88.4747
rradius 35.7406
rwrist -11.6122
rhand -38.6636 -3.24039
rfingers 7.12502
rthumb -11.6793 -32.8948
lclavicle 6.02566e-015 -2.22639e-014
lhumerus -30.2452 1.89592 86.5169
lradius 25.6069
lwrist 12.7015
lhand -16.1333 17.2765
lfingers 7.12502
lthumb 10.0716 47.0154
rfemur -37.0801 14.1316 10.9343
rtibia 48.46
rfoot -1.6413 5.34972
rtoes -2.33786
lfemur 2.42015 -17.4689 -17.7863
ltibia 28.1651
lfoot -11.31 -9.27817
ltoes -1.49443
194
root 5.94119 18.5845 9.65702 -3.29309 16.1698 -0.790613
lowerback 11.2646 -1.5395 -4.61634
upperback -0.108661 -2.76517 -1.80265
thorax -6.3146 -1.23434 1.1549
lowerneck -13.0143 1.69142 4.14521
upperneck 29.2844 2.62828 -3.82448
head 11.8359 1.18667 -1.77339
rclavicle -1.07592e-014 3.97569e-015
rhumerus -36.9709 -2.48429 -88.6677
rradius 35.978
rwrist -11.6874
rhand -38.6663 -3.15779
rfingers 7.12502
rthumb -11.6818 -32.8121
lclavicle -1.07592e-014 3.97569e-015
lhumerus -30.0093 1.74855 86.3789
lradius 25.4523
lwrist 12.5067
lhand -16.0924 17.5104
lfingers 7.12502
lthumb 10.111 47.2475
rfemur -37.2063 14.2103 10.9175
rtibia 48.6143
rfoot -1.89163 5.4348
rtoes -2.57262
lfemur 2.66837 -17.5275 -17.7768
ltibia 27.6298
lfoot -11.0087 -9.15308
ltoes -0.748485
195
root 5.9347 18.5984 9.73584 -3.02414 16.1794 -0.707223
lowerback 11.208 -1.55495 -4.67748
upperback -0.113114 -2.79543 -1.88651
thorax -6.2875 -1.24907 1.10387
lowerneck -12.9122 1.82833 4.27705
upperneck 29.5921 2.79129 -3.76477
head 11.9465 1.28401 -1.7554
rclavicle 3.07868e-014 1.98785e-014
rhumerus -36.6875 -2.07206 -88.8259
rradius 36.2059
rwrist -11.7693
rhand -38.6672 -3.09567
rfingers 7.12502
rthumb -11.6827 -32.7499
lclavicle 3.07868e-014 1.98785e-014
lhumerus -29.746 1.57175 86.2607
lradius 25.3365
lwrist 12.3443
lhand -16.1055 17.6865
lfingers 7.12502
lthumb 10.0984 47.4241
rfemur -37.3458 14.2931 10.8956
rtibia 48.7742
rfoot -2.13466 5.50835
rtoes -2.77147
lfemur 2.896 -17.5705 -17.7624
ltibia 27.103
lfoot -10.7261 -9.02684
ltoes -0.0151719
196
root 5.92816 18.6118 9.81138 -2.75192 16.1946 -0.633036
lowerback 11.1501 -1.56822 -4.72339
upperback -0.114618 -2.82015 -1.96541
thorax -6.25727 -1.26161 1.04854
lowerneck -12.822 1.96798 4.41289
upperneck 29.9407 2.95679 -3.69837
head 12.0771 1.3839 -1.7354
rclavicle -2.03506e-014 3.97569e-015
rhumerus -36.3969 -1.6932 -88.9484
rradius 36.4236
rwrist -11.8561
rhand -38.6715 -3.05251
rfingers 7.12502
rthumb -11.6869 -32.7065
lclavicle -2.03506e-014 3.97569e-015
lhumerus -29.4521 1.36991 86.1637
lradius 25.2578
lwrist 12.2103
lhand -16.1541 17.7997
lfingers 7.12502
lthumb 10.0515 47.5397
rfemur -37.5007 14.3682 10.8784
rtibia 48.938
rfoot -2.36201 5.56384
rtoes -2.94805
lfemur 3.10135 -17.6061 -17.7364
ltibia 26.5833
lfoot -10.4658 -8.89426
ltoes 0.672996
197
root 5.92159 18.625 9.88351 -2.48082 16.2176 -0.5688
lowerback 11.0982 -1.57903 -4.75299
upperback -0.112654 -2.83935 -2.04012
thorax -6.22759 -1.27193 0.987794
lowerneck -12.7367 2.11223 4.55354
upperneck 30.3169 3.12582 -3.62141
head 12.2211 1.4875 -1.71163
rclavicle 4.08502e-014 -3.18055e-015
rhumerus -36.1033 -1.3528 -89.0375
rradius 36.6338
rwrist -11.9571
rhand -38.6824 -3.01496
rfingers 7.12502
rthumb -11.6974 -32.6684
lclavicle 4.08502e-014 -3.18055e-015
lhumerus -29.1331 1.13836 86.0879
lradius 25.2205
lwrist 12.111
lhand -16.2402 17.8459
lfingers 7.12502
lthumb 9.9684 47.5898
rfemur -37.6669 14.4248 10.8703
rtibia 49.1036
rfoot -2.56637 5.59897
rtoes -3.10615
lfemur 3.28978 -17.6428 -17.6996
ltibia 26.0684
lfoot -10.2258 -8.75288
ltoes 1.31151
198
root 5.91504 18.6381 9.95233 -2.21657 16.2462 -0.520448
lowerback 11.0543 -1.58563 -4.76056
upperback -0.104032 -2.84986 -2.10913
thorax -6.19651 -1.2787 0.919532
lowerneck -12.6633 2.25677 4.69785
upperneck 30.7135 3.29269 -3.5371
head 12.3773 1.59165 -1.68568
rclavicle 2.57923e-014 2.78299e-014
rhumerus -35.807 -1.04468 -89.0953
rradius 36.8392
rwrist -12.0833
rhand -38.6995 -2.99759
rfingers 7.12502
rthumb -11.7139 -32.6501
lclavicle 2.57923e-014 2.78299e-014
lhumerus -28.7849 0.88176 86.0322
lradius 25.2188
lwrist 12.0489
lhand -16.3593 17.8219
lfingers 7.12502
lthumb 9.85356 47.5714
rfemur -37.839 14.457 10.8807
rtibia 49.2673
rfoot -2.74187 5.61589
rtoes -3.25474
lfemur 3.46749 -17.6889 -17.649
ltibia 25.5593
lfoot -10.0074 -8.60182
ltoes 1.89809
199
root 5.90858 18.651 10.018 -1.96471 16.2788 -0.487468
lowerback 11.0189 -1.58599 -4.75121
upperback -0.085057 -2.84945 -2.17081
thorax -6.16012 -1.28076 0.847964
lowerneck -12.5953 2.40014 4.84507
upperneck 31.1128 3.45543 -3.44682
head 12.5373 1.69527 -1.65799
rclavicle -8.89561e-015 -2.46493e-014
rhumerus -35.505 -0.767651 -89.1198
rradius 37.036
rwrist -12.2282
rhand -38.7191 -3.00368
rfingers 7.12502
rthumb -11.7328 -32.6551
lclavicle -8.89561e-015 -2.46493e-014
lhumerus -28.4104 0.599077 85.9999
lradius 25.2579
lwrist 12.0362
lhand -16.5074 17.7394
lfingers 7.12502
lthumb 9.71065 47.4955
rfemur -38.0088 14.4634 10.911
rtibia 49.4254
rfoot -2.88661 5.62108
rtoes -3.39518
lfemur 3.64032 -17.7478 -17.5877
ltibia 25.059
lfoot -9.80906 -8.44108
ltoes 2.43922
200
root 5.90229 18.6637 10.0806 -1.72886 16.3142 -0.467349
lowerback 10.9963 -1.57948 -4.72904
upperback -0.0549958 -2.83805 -2.22509
thorax -6.11991 -1.27789 0.775595
lowerneck -12.5304 2.54062 4.98452
upperneck 31.5039 3.61127 -3.34254
head 12.6954 1.79692 -1.62382
rclavicle 2.36057e-014 1.51076e-014
rhumerus -35.2008 -0.511351 -89.115
rradius 37.223
rwrist -12.3916
rhand -38.7508 -3.02029
rfingers 7.12502
rthumb -11.7633 -32.67
lclavicle 2.36057e-014 1.51076e-014
lhumerus -28.0102 0.295192 85.9886
lradius 25.3308
lwrist 12.0803
lhand -16.6828 17.6021
lfingers 7.12502
lthumb 9.54145 47.3661
rfemur -38.1688 14.448 10.9566
rtibia 49.5735
rfoot -3.00232 5.62134
rtoes -3.50611
lfemur 3.81107 -17.8208 -17.5207
ltibia 24.5723
lfoot -9.63201 -8.26904
ltoes 2.92967
201
root 5.89623 18.6759 10.14 -1.50975 16.3509 -0.457378
lowerback 10.9907 -1.5655 -4.69409
upperback -0.0173684 -2.81554 -2.27477
thorax -6.08209 -1.26988 0.699691
lowerneck -12.4511 2.67548 5.14338
upperneck 31.8654 3.75851 -3.25345
head 12.8401 1.89543 -1.59943
rclavicle 2.73329e-014 6.36111e-015
rhumerus -34.901 -0.272593 -89.0853
rradius 37.3994
rwrist -12.5752
rhand -38.7843 -3.05675
rfingers 7.12502
rthumb -11.7957 -32.7046
lclavicle 2.73329e-014 6.36111e-015
lhumerus -27.592 -0.0309031 85.9946
lradius 25.4349
lwrist 12.1859
lhand -16.8733 17.429
lfingers 7.12502
lthumb 9.3576 47.2013
rfemur -38.3159 14.4129 11.0123
rtibia 49.7084
rfoot -3.08926 5.62839
rtoes -3.58123
lfemur 3.97893 -17.907 -17.4519
ltibia 24.1056
lfoot -9.47488 -8.08949
ltoes 3.38794
202
root 5.89042 18.6874 10.1965 -1.30782 16.389 -0.450205
lowerback 10.9999 -1.54516 -4.66061
upperback 0.0302458 -2.78471 -2.31668
thorax -6.04186 -1.25773 0.631835
lowerneck -12.3672 2.80299 5.29072
upperneck 32.1967 3.89679 -3.1628
head 12.9718 1.98897 -1.57302
rclavicle 4.40308e-014 -2.38542e-014
rhumerus -34.6007 -0.0373549 -89.0296
rradius 37.5606
rwrist -12.7674
rhand -38.811 -3.11752
rfingers 7.12502
rthumb -11.8214 -32.7639
lclavicle 4.40308e-014 -2.38542e-014
lhumerus -27.1562 -0.357336 86.0183
lradius 25.568
lwrist 12.3489
lhand -17.0645 17.2583
lfingers 7.12502
lthumb 9.1731 47.0388
rfemur -38.4437 14.3666 11.0676
rtibia 49.8274
rfoot -3.15615 5.64988
rtoes -3.61491
lfemur 4.14404 -18.0011 -17.3898
ltibia 23.6647
lfoot -9.33891 -7.90466
ltoes 3.81079
203
root 5.88459 18.6981 10.2503 -1.11942 16.433 -0.443687
lowerback 11.0239 -1.5196 -4.6279
upperback 0.0831879 -2.74753 -2.35525
thorax -6.00424 -1.24231 0.567343
lowerneck -12.2726 2.91868 5.42861
upperneck 32.4941 4.01988 -3.07254
head 13.0868 2.07479 -1.5468
rclavicle -5.46658e-015 -3.18055e-015
rhumerus -34.3076 0.185095 -88.9531
rradius 37.7039
rwrist -12.9558
rhand -38.8213 -3.19829
rfingers 7.12502
rthumb -11.8313 -32.8441
lclavicle -5.46658e-015 -3.18055e-015
lhumerus -26.714 -0.690936 86.0541
lradius 25.7319
lwrist 12.5716
lhand -17.2535 17.0888
lfingers 7.12502
lthumb 8.99075 46.8772
rfemur -38.5523 14.3102 11.1187
rtibia 49.9298
rfoot -3.21206 5.69023
rtoes -3.61158
lfemur 4.30022 -18.0977 -17.3323
ltibia 23.2527
lfoot -9.21847 -7.71986
ltoes 4.20173
